<?xml version="1.0" encoding="UTF-8" ?>
<!DOCTYPE svg PUBLIC "-//W3C//DTD SVG 1.1//EN" "http://www.w3.org/Graphics/SVG/1.1/DTD/svg11.dtd">
<svg width="1497pt" height="668pt" viewBox="0 0 1497 668" version="1.1" xmlns="http://www.w3.org/2000/svg">
<path fill="transparent" d=" M 0.00 0.00 L 192.55 0.00 C 183.01 0.53 173.33 -0.71 163.93 1.45 C 148.80 4.63 135.44 13.00 123.30 22.24 C 107.33 34.15 93.26 49.61 86.48 68.61 C 80.39 85.02 81.02 102.79 81.19 120.00 C 81.12 150.67 81.29 181.34 81.11 212.01 C 80.95 230.01 77.15 248.26 67.95 263.88 C 61.73 274.24 53.83 284.10 43.10 290.03 C 29.53 297.76 14.69 302.88 0.00 308.02 L 0.00 0.00 Z" />
<path fill="#404040" d=" M 192.55 0.00 L 249.24 0.00 C 249.34 1.41 249.46 2.81 249.53 4.22 C 249.53 23.31 249.55 42.40 249.52 61.49 C 242.02 61.61 234.52 61.42 227.03 61.41 C 221.53 61.32 216.35 63.38 211.29 65.27 C 204.51 67.89 197.69 71.25 192.96 76.96 C 185.66 85.63 182.42 96.91 180.71 107.91 C 178.97 118.19 179.43 128.65 179.36 139.03 C 179.35 164.33 179.44 189.64 179.31 214.94 C 178.74 233.17 177.43 251.82 170.63 268.94 C 160.36 293.40 140.31 312.49 117.77 325.83 C 113.68 328.24 109.48 330.44 105.43 332.92 C 119.68 339.64 133.83 346.99 145.96 357.17 C 152.20 362.58 158.00 368.60 162.48 375.57 C 167.69 383.73 171.35 392.81 173.84 402.16 C 179.21 423.01 179.66 444.71 179.45 466.13 C 179.42 490.11 179.45 514.09 179.45 538.07 C 179.42 545.25 180.17 552.43 181.78 559.43 C 184.54 572.71 191.86 585.06 202.89 593.09 C 211.94 599.83 222.82 603.28 233.45 606.61 C 233.44 614.72 233.40 622.84 233.45 630.95 C 233.36 641.89 233.46 652.84 233.41 663.79 C 233.37 665.18 233.33 666.59 233.29 668.00 L 204.42 668.00 C 170.15 666.72 135.60 655.26 109.70 632.30 C 97.25 620.92 88.92 605.51 85.03 589.17 C 82.31 577.99 81.16 566.48 81.20 554.99 C 81.14 521.34 81.19 487.70 81.18 454.05 C 81.18 442.84 81.21 431.43 78.20 420.54 C 74.26 405.33 65.61 391.54 54.12 380.90 C 46.78 373.62 37.28 369.12 27.85 365.18 C 18.79 361.52 9.44 358.62 0.00 356.13 L 0.00 308.02 C 14.69 302.88 29.53 297.76 43.10 290.03 C 53.83 284.10 61.73 274.24 67.95 263.88 C 77.15 248.26 80.95 230.01 81.11 212.01 C 81.29 181.34 81.12 150.67 81.19 120.00 C 81.02 102.79 80.39 85.02 86.48 68.61 C 93.26 49.61 107.33 34.15 123.30 22.24 C 135.44 13.00 148.80 4.63 163.93 1.45 C 173.33 -0.71 183.01 0.53 192.55 0.00 Z" />
<path fill="#f6f6f6" d=" M 249.24 0.00 L 249.57 0.00 C 249.59 3.05 252.87 2.64 255.01 2.74 C 261.03 2.69 266.97 3.97 272.99 3.85 C 283.97 3.79 294.96 3.74 305.94 3.80 C 312.87 3.89 319.81 2.08 326.71 3.44 C 324.72 4.23 322.58 4.05 320.52 3.73 C 320.51 4.26 320.51 4.79 320.52 5.32 C 322.37 5.01 324.23 4.52 326.13 4.45 C 334.06 4.96 342.83 6.34 348.33 12.69 C 358.39 24.25 361.77 40.03 362.29 54.98 C 362.43 138.52 362.19 222.06 362.40 305.60 C 362.29 320.27 362.25 334.96 362.42 349.63 C 362.21 369.41 362.38 389.19 362.32 408.97 C 362.38 415.46 361.93 422.05 363.38 428.45 C 364.50 435.90 369.56 442.88 376.98 445.04 C 386.04 447.67 395.61 446.02 404.91 446.52 C 408.34 456.30 410.69 466.41 411.92 476.70 C 412.77 489.52 412.92 502.57 410.51 515.24 C 395.08 517.52 379.61 519.84 364.01 520.64 C 345.04 522.00 325.46 522.35 307.15 516.43 C 295.48 512.68 284.74 505.41 278.00 495.03 C 272.31 486.50 268.71 476.71 266.57 466.72 C 263.06 451.59 263.46 436.01 263.36 420.59 C 263.52 407.26 263.52 393.93 263.36 380.60 C 263.52 351.62 263.51 322.63 263.35 293.66 C 263.60 197.18 263.36 100.70 263.47 4.22 C 258.82 4.21 254.18 4.20 249.53 4.22 C 249.46 2.81 249.34 1.41 249.24 0.00 Z" />
<path fill="transparent" d=" M 249.57 0.00 L 1273.20 0.00 C 1273.18 1.40 1273.18 2.79 1273.19 4.19 C 975.14 4.20 677.08 4.18 379.02 4.20 C 361.39 4.31 343.75 3.93 326.13 4.45 C 324.23 4.52 322.37 5.01 320.52 5.32 C 320.51 4.79 320.51 4.26 320.52 3.73 C 322.58 4.05 324.72 4.23 326.71 3.44 C 319.81 2.08 312.87 3.89 305.94 3.80 C 294.96 3.74 283.97 3.79 272.99 3.85 C 266.97 3.97 261.03 2.69 255.01 2.74 C 252.87 2.64 249.59 3.05 249.57 0.00 Z" />
<path fill="#404040" d=" M 1273.20 0.00 L 1330.28 0.00 C 1349.41 1.27 1366.49 11.27 1381.30 22.77 C 1399.39 36.13 1412.49 55.56 1419.51 76.82 C 1423.99 89.71 1425.31 103.45 1425.30 117.02 C 1425.35 147.68 1425.31 178.34 1425.32 209.00 C 1425.05 228.19 1427.87 247.98 1437.21 265.00 C 1444.44 278.42 1456.09 289.16 1469.46 296.32 C 1478.21 301.13 1487.54 304.73 1497.00 307.87 L 1497.00 355.99 C 1486.10 359.13 1475.20 362.74 1465.50 368.76 C 1454.52 375.60 1444.55 384.46 1437.72 395.54 C 1431.37 405.60 1427.68 417.19 1426.19 428.95 C 1425.10 436.59 1425.36 444.31 1425.33 452.00 C 1425.33 484.67 1425.33 517.34 1425.33 550.01 C 1425.43 569.41 1422.64 589.31 1413.71 606.76 C 1406.64 620.88 1395.48 632.70 1382.43 641.47 C 1365.11 653.55 1345.05 661.41 1324.34 665.27 C 1307.51 668.31 1290.40 668.09 1273.38 667.81 C 1273.36 666.62 1273.34 665.43 1273.32 664.26 C 1272.99 655.29 1273.42 646.30 1272.99 637.33 C 1273.44 627.02 1272.94 616.70 1273.33 606.39 C 1280.70 604.14 1288.20 601.89 1294.78 597.75 C 1308.52 588.83 1319.67 575.36 1323.94 559.36 C 1327.04 548.55 1327.27 537.21 1327.12 526.05 C 1326.98 515.57 1327.48 505.08 1326.83 494.62 C 1327.49 478.74 1326.95 462.84 1327.15 446.95 C 1327.30 431.28 1328.14 415.52 1331.38 400.15 C 1333.69 390.79 1337.00 381.52 1342.63 373.61 C 1351.95 360.18 1365.58 350.59 1379.49 342.42 C 1385.58 338.89 1392.15 336.28 1398.20 332.68 C 1385.49 325.87 1373.11 318.25 1362.33 308.61 C 1350.36 298.02 1340.30 285.10 1333.85 270.42 C 1328.77 258.30 1327.81 244.98 1327.33 232.00 C 1326.82 196.68 1327.37 161.34 1327.04 126.02 C 1326.66 108.23 1322.34 89.46 1310.04 75.99 C 1302.69 67.69 1292.29 62.84 1281.65 60.35 C 1278.93 59.49 1275.76 59.44 1273.40 57.81 C 1272.89 39.96 1273.37 22.06 1273.19 4.19 C 1273.18 2.79 1273.18 1.40 1273.20 0.00 Z" />
<path fill="transparent" d=" M 1330.28 0.00 L 1497.00 0.00 L 1497.00 307.87 C 1487.54 304.73 1478.21 301.13 1469.46 296.32 C 1456.09 289.16 1444.44 278.42 1437.21 265.00 C 1427.87 247.98 1425.05 228.19 1425.32 209.00 C 1425.31 178.34 1425.35 147.68 1425.30 117.02 C 1425.31 103.45 1423.99 89.71 1419.51 76.82 C 1412.49 55.56 1399.39 36.13 1381.30 22.77 C 1366.49 11.27 1349.41 1.27 1330.28 0.00 Z" />
<path fill="#2a4f84" d=" M 326.13 4.45 C 343.75 3.93 361.39 4.31 379.02 4.20 C 677.08 4.18 975.14 4.20 1273.19 4.19 C 1273.37 22.06 1272.89 39.96 1273.40 57.81 C 1275.76 59.44 1278.93 59.49 1281.65 60.35 C 1292.29 62.84 1302.69 67.69 1310.04 75.99 C 1322.34 89.46 1326.66 108.23 1327.04 126.02 C 1327.37 161.34 1326.82 196.68 1327.33 232.00 C 1327.81 244.98 1328.77 258.30 1333.85 270.42 C 1330.94 272.43 1327.34 272.16 1324.00 272.12 C 1302.47 271.64 1280.91 272.55 1259.39 271.72 C 1266.72 256.79 1271.75 240.24 1270.67 223.45 C 1253.12 214.42 1236.27 203.28 1216.82 198.69 C 1193.97 193.30 1170.44 189.78 1146.92 190.90 C 1114.82 192.59 1084.47 207.52 1061.01 229.04 C 1048.97 240.28 1040.35 254.96 1036.00 270.82 C 1035.52 271.96 1035.03 273.10 1034.54 274.24 C 1026.22 271.98 1017.56 273.29 1009.07 272.97 C 999.27 272.67 989.43 273.64 979.67 272.42 C 987.18 257.36 992.24 240.64 991.44 223.67 C 973.76 214.26 956.53 203.15 936.79 198.52 C 914.93 193.38 892.47 190.13 869.97 190.75 C 836.44 191.97 804.43 207.40 780.36 230.38 C 764.09 245.85 754.91 267.82 753.42 290.07 C 752.56 289.04 751.71 288.03 750.87 287.01 C 738.26 286.77 725.65 287.09 713.04 286.86 C 709.97 286.76 706.93 287.31 703.96 288.03 C 699.29 271.48 691.66 255.66 680.75 242.30 C 671.96 231.65 661.34 222.47 649.36 215.58 C 639.41 209.59 628.42 205.70 617.87 200.94 C 603.48 194.69 587.95 189.35 572.03 190.99 C 553.56 192.31 536.41 199.99 519.92 207.85 C 506.20 213.88 493.20 221.83 482.39 232.28 C 464.58 249.11 452.68 271.42 445.81 294.77 C 441.92 294.05 437.96 293.69 434.01 293.83 C 410.77 294.17 387.52 293.54 364.29 294.13 C 364.16 298.02 363.61 301.89 362.40 305.60 C 362.19 222.06 362.43 138.52 362.29 54.98 C 361.77 40.03 358.39 24.25 348.33 12.69 C 342.83 6.34 334.06 4.96 326.13 4.45 Z" />
<path fill="#2a4f83" d=" M 249.53 4.22 C 254.18 4.20 258.82 4.21 263.47 4.22 C 263.36 100.70 263.60 197.18 263.35 293.66 C 260.57 286.82 262.73 279.35 261.77 272.22 C 231.67 271.79 201.54 272.45 171.45 271.90 C 171.24 271.16 170.84 269.68 170.63 268.94 C 177.43 251.82 178.74 233.17 179.31 214.94 C 179.44 189.64 179.35 164.33 179.36 139.03 C 179.43 128.65 178.97 118.19 180.71 107.91 C 182.42 96.91 185.66 85.63 192.96 76.96 C 197.69 71.25 204.51 67.89 211.29 65.27 C 216.35 63.38 221.53 61.32 227.03 61.41 C 234.52 61.42 242.02 61.61 249.52 61.49 C 249.55 42.40 249.53 23.31 249.53 4.22 Z" />
<path fill="#f6f6f6" d=" M 134.17 24.22 C 145.93 15.90 159.41 8.87 174.08 8.25 C 196.57 8.19 219.06 8.19 241.55 8.22 C 241.53 23.32 241.56 38.42 241.54 53.51 C 234.84 53.64 228.10 53.08 221.42 53.65 C 209.91 56.83 197.95 60.78 189.15 69.24 C 178.83 79.81 174.37 94.58 172.48 108.90 C 171.03 118.53 171.44 128.28 171.37 137.98 C 171.34 164.32 171.44 190.67 171.31 217.01 C 170.41 234.30 169.30 252.13 162.22 268.20 C 153.00 288.60 136.28 304.73 117.55 316.53 C 107.59 322.88 96.96 328.09 86.15 332.81 C 86.22 333.14 86.35 333.78 86.42 334.11 C 100.89 339.37 114.98 345.87 128.03 354.08 C 139.97 361.73 151.27 371.22 158.11 383.88 C 167.38 401.01 170.16 420.79 170.95 440.01 C 171.56 445.30 171.33 450.64 171.37 455.96 C 171.38 482.97 171.37 509.99 171.38 537.00 C 171.36 552.09 173.93 567.60 181.42 580.89 C 185.40 588.11 191.22 594.16 197.69 599.20 C 205.91 605.46 215.63 609.24 225.32 612.55 C 225.25 628.28 225.31 644.02 225.29 659.75 C 216.93 659.77 208.56 659.94 200.19 659.67 C 178.27 658.30 156.41 652.69 137.20 641.86 C 123.93 634.46 111.26 625.02 103.08 611.97 C 92.39 595.08 89.34 574.62 89.18 554.97 C 89.11 524.98 89.17 494.99 89.15 465.00 C 88.96 450.97 90.00 436.76 87.02 422.94 C 82.62 401.68 70.04 382.35 52.77 369.27 C 39.38 359.99 23.74 354.61 8.20 350.10 C 8.19 337.94 8.10 325.78 8.22 313.63 C 24.14 307.97 40.38 302.16 54.25 292.29 C 70.12 279.46 80.78 260.85 85.62 241.16 C 88.08 231.65 88.89 221.82 89.16 212.04 C 89.14 177.34 89.19 142.65 89.14 107.95 C 89.04 94.31 89.96 80.27 95.49 67.60 C 103.18 49.31 118.17 35.37 134.17 24.22 Z" />
<path fill="#f6f6f6" d=" M 1281.27 8.20 C 1297.78 8.29 1314.30 8.12 1330.81 8.27 C 1348.36 9.41 1363.69 19.30 1377.22 29.77 C 1396.86 44.50 1409.84 67.01 1415.02 90.81 C 1417.85 105.04 1417.26 119.60 1417.32 134.02 C 1417.33 160.34 1417.30 186.67 1417.34 212.99 C 1417.36 233.40 1421.33 254.36 1432.00 272.00 C 1440.91 286.85 1454.76 298.30 1470.25 305.81 C 1476.38 308.89 1482.80 311.33 1489.21 313.78 C 1489.21 325.23 1489.22 336.69 1489.22 348.14 C 1489.72 350.19 1487.29 350.50 1485.97 351.01 C 1468.38 356.26 1452.09 366.09 1439.65 379.65 C 1427.82 392.72 1420.56 409.62 1418.38 427.06 C 1416.80 437.31 1417.49 447.72 1417.34 458.05 C 1417.33 489.71 1417.35 521.38 1417.32 553.04 C 1417.08 572.20 1413.73 591.94 1403.56 608.49 C 1394.92 622.98 1381.27 633.70 1366.70 641.78 C 1348.20 652.24 1327.21 657.81 1306.10 659.45 C 1297.84 660.03 1289.55 659.72 1281.29 659.76 C 1281.32 643.95 1281.24 628.13 1281.33 612.32 C 1290.53 609.42 1299.47 605.24 1306.83 598.90 C 1311.96 594.36 1317.01 589.60 1320.94 583.95 C 1328.11 574.00 1332.26 562.14 1334.11 550.09 C 1335.68 537.12 1335.15 524.06 1335.23 511.03 C 1335.38 485.02 1334.91 458.99 1335.52 432.99 C 1336.58 415.12 1338.12 396.29 1347.63 380.63 C 1356.65 366.33 1370.93 356.42 1385.47 348.35 C 1395.98 342.70 1406.91 337.82 1418.13 333.76 C 1416.05 331.57 1413.02 330.82 1410.42 329.51 C 1392.52 321.21 1375.21 310.88 1361.41 296.60 C 1350.64 285.48 1341.37 272.10 1337.97 256.79 C 1335.85 246.34 1335.25 235.65 1335.27 225.01 C 1335.17 194.31 1335.24 163.61 1335.23 132.91 C 1335.30 115.61 1333.11 97.68 1324.45 82.38 C 1320.35 74.89 1314.57 68.36 1307.78 63.21 C 1300.02 57.50 1290.76 54.09 1281.40 52.09 C 1281.10 37.46 1281.35 22.83 1281.27 8.20 Z" />
<path fill="#f6f6f6" d=" M 519.92 207.85 C 536.41 199.99 553.56 192.31 572.03 190.99 C 587.95 189.35 603.48 194.69 617.87 200.94 C 628.42 205.70 639.41 209.59 649.36 215.58 C 661.34 222.47 671.96 231.65 680.75 242.30 C 691.66 255.66 699.29 271.48 703.96 288.03 C 709.00 305.86 710.05 324.55 709.21 342.98 C 708.55 355.40 707.53 367.83 705.21 380.08 C 704.19 385.58 702.85 391.02 701.24 396.39 C 646.61 396.38 591.97 396.38 537.34 396.39 C 537.74 413.08 543.27 430.56 556.24 441.74 C 568.99 451.99 586.25 453.29 601.97 452.54 C 621.38 451.29 640.39 446.55 658.80 440.48 C 664.52 438.70 670.04 436.28 675.87 434.83 C 684.35 443.96 690.89 454.80 695.12 466.52 C 697.76 474.86 700.83 483.48 700.68 492.31 C 670.56 513.85 634.23 526.16 597.41 529.10 C 578.30 530.38 558.83 530.26 540.18 525.40 C 519.61 520.24 499.61 511.37 483.48 497.39 C 466.95 482.95 455.29 463.57 448.34 442.88 C 444.34 430.86 441.88 418.39 440.01 405.88 C 437.44 387.44 436.79 368.80 437.21 350.20 C 437.88 331.48 440.52 312.76 445.81 294.77 C 452.68 271.42 464.58 249.11 482.39 232.28 C 493.20 221.83 506.20 213.88 519.92 207.85 Z" />
<path fill="#f6f6f6" d=" M 780.36 230.38 C 804.43 207.40 836.44 191.97 869.97 190.75 C 892.47 190.13 914.93 193.38 936.79 198.52 C 956.53 203.15 973.76 214.26 991.44 223.67 C 992.24 240.64 987.18 257.36 979.67 272.42 C 975.90 279.79 970.74 286.46 964.25 291.63 C 936.88 279.56 908.06 269.03 877.88 267.83 C 869.81 267.70 860.81 268.93 854.98 275.08 C 850.34 279.78 849.20 286.97 850.87 293.18 C 852.49 298.26 856.49 302.18 860.80 305.12 C 869.00 310.62 878.69 313.01 887.84 316.43 C 912.04 325.01 937.33 332.48 958.04 348.30 C 967.32 355.18 975.60 363.51 982.02 373.13 C 997.39 395.99 1000.15 425.48 994.02 451.88 C 990.72 464.97 984.44 477.32 975.58 487.52 C 965.97 498.58 953.88 507.30 940.77 513.74 C 921.27 523.40 899.62 528.00 878.02 529.45 C 862.69 530.04 847.26 530.03 832.07 527.66 C 801.14 523.32 771.42 512.27 744.21 497.11 C 744.48 487.48 746.69 478.01 749.88 468.95 C 754.68 455.19 761.25 441.81 771.09 430.94 C 787.86 439.19 804.96 447.04 823.08 451.84 C 838.65 456.02 855.01 458.50 871.09 456.21 C 878.61 455.09 886.42 452.43 891.51 446.50 C 896.93 440.22 896.55 430.49 892.27 423.72 C 887.89 417.01 880.76 412.69 873.50 409.70 C 856.99 403.44 840.40 397.37 823.94 390.98 C 815.91 387.68 808.09 383.87 800.62 379.45 C 785.76 370.52 772.26 358.64 763.72 343.37 C 754.51 327.33 751.73 308.30 753.42 290.07 C 754.91 267.82 764.09 245.85 780.36 230.38 Z" />
<path fill="#f6f6f6" d=" M 1061.01 229.04 C 1084.47 207.52 1114.82 192.59 1146.92 190.90 C 1170.44 189.78 1193.97 193.30 1216.82 198.69 C 1236.27 203.28 1253.12 214.42 1270.67 223.45 C 1271.75 240.24 1266.72 256.79 1259.39 271.72 C 1255.45 279.29 1250.48 286.63 1243.43 291.62 C 1216.11 279.40 1187.20 269.00 1157.01 267.83 C 1149.40 267.75 1141.04 268.80 1135.26 274.24 C 1128.98 279.79 1127.57 289.89 1132.01 296.97 C 1135.63 302.92 1141.89 306.59 1148.06 309.42 C 1175.40 320.44 1204.86 326.95 1229.92 343.05 C 1242.32 351.00 1253.56 361.06 1261.63 373.47 C 1267.62 382.55 1271.82 392.79 1274.13 403.41 C 1277.38 418.65 1277.13 434.55 1273.95 449.78 C 1269.98 467.46 1260.38 483.79 1246.83 495.84 C 1242.90 499.30 1238.79 502.56 1234.46 505.50 C 1218.37 516.25 1199.85 523.04 1180.87 526.51 C 1141.36 533.64 1100.04 529.25 1062.53 515.13 C 1049.06 510.20 1036.10 503.98 1023.54 497.08 C 1023.60 495.48 1023.69 493.88 1023.78 492.29 C 1025.16 480.97 1028.41 469.93 1032.90 459.47 C 1037.33 449.17 1042.85 439.19 1050.57 430.97 C 1077.53 444.47 1106.37 456.41 1136.95 457.12 C 1146.59 457.02 1156.81 456.34 1165.28 451.23 C 1170.61 448.08 1174.93 442.45 1174.81 436.02 C 1175.39 428.41 1171.17 421.18 1165.23 416.70 C 1156.89 410.02 1146.29 407.53 1136.58 403.58 C 1118.78 396.57 1100.27 391.02 1083.57 381.51 C 1076.81 377.69 1070.30 373.39 1064.33 368.40 C 1055.61 361.15 1048.04 352.42 1042.59 342.45 C 1030.61 320.75 1030.06 294.42 1036.00 270.82 C 1040.35 254.96 1048.97 240.28 1061.01 229.04 Z" />
<path fill="#274a7c" d=" M 573.62 266.88 C 584.59 265.93 596.58 268.44 604.56 276.49 C 611.89 283.46 614.80 293.56 616.83 303.16 C 618.72 312.94 619.55 322.93 619.34 332.89 C 619.34 334.54 617.08 334.23 615.98 334.27 C 591.01 334.23 566.04 334.22 541.06 334.28 C 539.57 334.09 537.72 334.77 536.64 333.42 C 537.62 321.15 538.91 308.85 541.91 296.88 C 543.68 290.05 545.89 283.04 550.68 277.67 C 556.35 270.96 565.03 267.60 573.62 266.88 Z" />
<path fill="#274b7c" d=" M 854.98 275.08 C 860.81 268.93 869.81 267.70 877.88 267.83 C 908.06 269.03 936.88 279.56 964.25 291.63 C 970.74 286.46 975.90 279.79 979.67 272.42 C 989.43 273.64 999.27 272.67 1009.07 272.97 C 1017.56 273.29 1026.22 271.98 1034.54 274.24 C 1035.03 273.10 1035.52 271.96 1036.00 270.82 C 1030.06 294.42 1030.61 320.75 1042.59 342.45 C 1018.09 341.25 993.52 342.41 969.00 341.86 C 965.75 342.07 962.04 341.23 959.19 343.13 C 957.29 344.27 957.94 346.51 958.04 348.30 C 937.33 332.48 912.04 325.01 887.84 316.43 C 878.69 313.01 869.00 310.62 860.80 305.12 C 856.49 302.18 852.49 298.26 850.87 293.18 C 849.20 286.97 850.34 279.78 854.98 275.08 Z" />
<path fill="#274a7c" d=" M 1135.26 274.24 C 1141.04 268.80 1149.40 267.75 1157.01 267.83 C 1187.20 269.00 1216.11 279.40 1243.43 291.62 C 1250.48 286.63 1255.45 279.29 1259.39 271.72 C 1280.91 272.55 1302.47 271.64 1324.00 272.12 C 1327.34 272.16 1330.94 272.43 1333.85 270.42 C 1340.30 285.10 1350.36 298.02 1362.33 308.61 C 1373.11 318.25 1385.49 325.87 1398.20 332.68 C 1392.15 336.28 1385.58 338.89 1379.49 342.42 C 1369.34 341.59 1359.15 342.09 1348.99 341.94 C 1316.33 341.93 1283.67 342.04 1251.01 341.97 C 1243.98 342.15 1236.82 341.22 1229.92 343.05 C 1204.86 326.95 1175.40 320.44 1148.06 309.42 C 1141.89 306.59 1135.63 302.92 1132.01 296.97 C 1127.57 289.89 1128.98 279.79 1135.26 274.24 Z" />
<path fill="#26497a" d=" M 117.77 325.83 C 140.31 312.49 160.36 293.40 170.63 268.94 C 170.84 269.68 171.24 271.16 171.45 271.90 C 201.54 272.45 231.67 271.79 261.77 272.22 C 262.73 279.35 260.57 286.82 263.35 293.66 C 263.51 322.63 263.52 351.62 263.36 380.60 C 260.65 373.40 262.72 365.62 261.78 358.16 C 252.86 357.66 243.92 358.01 235.00 358.00 C 211.01 357.94 187.02 357.99 163.03 357.96 C 157.34 357.98 151.58 358.31 145.96 357.17 C 133.83 346.99 119.68 339.64 105.43 332.92 C 109.48 330.44 113.68 328.24 117.77 325.83 Z" />
<path fill="#274a7b" d=" M 703.96 288.03 C 706.93 287.31 709.97 286.76 713.04 286.86 C 725.65 287.09 738.26 286.77 750.87 287.01 C 751.71 288.03 752.56 289.04 753.42 290.07 C 751.73 308.30 754.51 327.33 763.72 343.37 C 745.57 342.50 727.38 343.23 709.21 342.98 C 710.05 324.55 709.00 305.86 703.96 288.03 Z" />
<path fill="#26497b" d=" M 364.29 294.13 C 387.52 293.54 410.77 294.17 434.01 293.83 C 437.96 293.69 441.92 294.05 445.81 294.77 C 440.52 312.76 437.88 331.48 437.21 350.20 C 437.04 347.52 436.73 344.87 436.45 342.21 C 415.99 341.71 395.51 342.23 375.04 341.99 C 371.59 341.91 368.15 342.01 364.71 342.21 C 364.04 344.71 363.26 347.18 362.42 349.63 C 362.25 334.96 362.29 320.27 362.40 305.60 C 363.61 301.89 364.16 298.02 364.29 294.13 Z" />
<path fill="#244573" d=" M 364.71 342.21 C 368.15 342.01 371.59 341.91 375.04 341.99 C 395.51 342.23 415.99 341.71 436.45 342.21 C 436.73 344.87 437.04 347.52 437.21 350.20 C 436.79 368.80 437.44 387.44 440.01 405.88 C 440.01 406.59 440.02 408.02 440.03 408.73 C 439.27 407.83 438.52 406.93 437.78 406.04 C 413.23 405.97 388.67 405.72 364.13 406.16 C 363.64 413.58 364.41 421.05 363.38 428.45 C 361.93 422.05 362.38 415.46 362.32 408.97 C 362.38 389.19 362.21 369.41 362.42 349.63 C 363.26 347.18 364.04 344.71 364.71 342.21 Z" />
<path fill="#254776" d=" M 959.19 343.13 C 962.04 341.23 965.75 342.07 969.00 341.86 C 993.52 342.41 1018.09 341.25 1042.59 342.45 C 1048.04 352.42 1055.61 361.15 1064.33 368.40 C 1046.89 367.74 1029.43 368.19 1011.97 368.05 C 1002.87 368.41 993.74 367.44 984.66 368.43 C 983.78 370.00 982.89 371.56 982.02 373.13 C 975.60 363.51 967.32 355.18 958.04 348.30 C 957.94 346.51 957.29 344.27 959.19 343.13 Z" />
<path fill="#244674" d=" M 1229.92 343.05 C 1236.82 341.22 1243.98 342.15 1251.01 341.97 C 1283.67 342.04 1316.33 341.93 1348.99 341.94 C 1359.15 342.09 1369.34 341.59 1379.49 342.42 C 1365.58 350.59 1351.95 360.18 1342.63 373.61 C 1337.00 381.52 1333.69 390.79 1331.38 400.15 C 1330.32 401.78 1329.35 404.07 1327.03 403.88 C 1318.69 404.32 1310.33 403.77 1301.98 403.94 C 1292.70 403.70 1283.38 404.48 1274.13 403.41 C 1271.82 392.79 1267.62 382.55 1261.63 373.47 C 1253.56 361.06 1242.32 351.00 1229.92 343.05 Z" />
<path fill="#244675" d=" M 709.21 342.98 C 727.38 343.23 745.57 342.50 763.72 343.37 C 772.26 358.64 785.76 370.52 800.62 379.45 C 793.15 380.55 785.59 380.03 778.07 380.09 C 753.78 380.09 729.50 380.08 705.21 380.08 C 707.53 367.83 708.55 355.40 709.21 342.98 Z" />
<path fill="transparent" d=" M 0.00 356.13 C 9.44 358.62 18.79 361.52 27.85 365.18 C 37.28 369.12 46.78 373.62 54.12 380.90 C 65.61 391.54 74.26 405.33 78.20 420.54 C 81.21 431.43 81.18 442.84 81.18 454.05 C 81.19 487.70 81.14 521.34 81.20 554.99 C 81.16 566.48 82.31 577.99 85.03 589.17 C 88.92 605.51 97.25 620.92 109.70 632.30 C 135.60 655.26 170.15 666.72 204.42 668.00 L 0.00 668.00 L 0.00 356.13 Z" />
<path fill="transparent" d=" M 1465.50 368.76 C 1475.20 362.74 1486.10 359.13 1497.00 355.99 L 1497.00 668.00 L 1312.77 668.00 C 1316.73 667.65 1320.56 666.49 1324.34 665.27 C 1345.05 661.41 1365.11 653.55 1382.43 641.47 C 1395.48 632.70 1406.64 620.88 1413.71 606.76 C 1422.64 589.31 1425.43 569.41 1425.33 550.01 C 1425.33 517.34 1425.33 484.67 1425.33 452.00 C 1425.36 444.31 1425.10 436.59 1426.19 428.95 C 1427.68 417.19 1431.37 405.60 1437.72 395.54 C 1444.55 384.46 1454.52 375.60 1465.50 368.76 Z" />
<path fill="#244473" d=" M 145.96 357.17 C 151.58 358.31 157.34 357.98 163.03 357.96 C 187.02 357.99 211.01 357.94 235.00 358.00 C 243.92 358.01 252.86 357.66 261.78 358.16 C 262.72 365.62 260.65 373.40 263.36 380.60 C 263.52 393.93 263.52 407.26 263.36 420.59 C 261.32 415.71 262.11 410.36 261.82 405.23 C 234.55 404.80 207.26 405.16 179.98 405.03 C 177.51 405.25 175.37 403.99 173.84 402.16 C 171.35 392.81 167.69 383.73 162.48 375.57 C 158.00 368.60 152.20 362.58 145.96 357.17 Z" />
<path fill="#22426e" d=" M 984.66 368.43 C 993.74 367.44 1002.87 368.41 1011.97 368.05 C 1029.43 368.19 1046.89 367.74 1064.33 368.40 C 1070.30 373.39 1076.81 377.69 1083.57 381.51 C 1100.27 391.02 1118.78 396.57 1136.58 403.58 C 1146.29 407.53 1156.89 410.02 1165.23 416.70 C 1171.17 421.18 1175.39 428.41 1174.81 436.02 C 1174.93 442.45 1170.61 448.08 1165.28 451.23 C 1156.81 456.34 1146.59 457.02 1136.95 457.12 C 1106.37 456.41 1077.53 444.47 1050.57 430.97 C 1042.85 439.19 1037.33 449.17 1032.90 459.47 C 1031.01 458.63 1029.04 457.89 1026.97 457.75 C 1015.81 456.61 1004.54 456.57 993.36 457.40 C 993.55 455.55 993.73 453.71 994.02 451.88 C 1000.15 425.48 997.39 395.99 982.02 373.13 C 982.89 371.56 983.78 370.00 984.66 368.43 Z" />
<path fill="#22416d" d=" M 705.21 380.08 C 729.50 380.08 753.78 380.09 778.07 380.09 C 785.59 380.03 793.15 380.55 800.62 379.45 C 808.09 383.87 815.91 387.68 823.94 390.98 C 840.40 397.37 856.99 403.44 873.50 409.70 C 880.76 412.69 887.89 417.01 892.27 423.72 C 896.55 430.49 896.93 440.22 891.51 446.50 C 886.42 452.43 878.61 455.09 871.09 456.21 C 855.01 458.50 838.65 456.02 823.08 451.84 C 804.96 447.04 787.86 439.19 771.09 430.94 C 761.25 441.81 754.68 455.19 749.88 468.95 C 748.96 467.00 747.32 465.64 745.04 466.05 C 728.41 466.45 711.74 465.71 695.12 466.52 C 690.89 454.80 684.35 443.96 675.87 434.83 C 670.04 436.28 664.52 438.70 658.80 440.48 C 640.39 446.55 621.38 451.29 601.97 452.54 C 586.25 453.29 568.99 451.99 556.24 441.74 C 543.27 430.56 537.74 413.08 537.34 396.39 C 591.97 396.38 646.61 396.38 701.24 396.39 C 702.85 391.02 704.19 385.58 705.21 380.08 Z" />
<path fill="#22416d" d=" M 1327.03 403.88 C 1329.35 404.07 1330.32 401.78 1331.38 400.15 C 1328.14 415.52 1327.30 431.28 1327.15 446.95 C 1326.26 448.08 1325.63 449.84 1323.94 449.84 C 1317.98 450.49 1311.97 449.71 1306.00 449.96 C 1296.09 450.24 1286.18 449.81 1276.28 450.11 C 1275.50 451.02 1274.73 451.93 1273.98 452.84 C 1273.97 452.08 1273.95 450.54 1273.95 449.78 C 1277.13 434.55 1277.38 418.65 1274.13 403.41 C 1283.38 404.48 1292.70 403.70 1301.98 403.94 C 1310.33 403.77 1318.69 404.32 1327.03 403.88 Z" />
<path fill="#21406b" d=" M 173.84 402.16 C 175.37 403.99 177.51 405.25 179.98 405.03 C 207.26 405.16 234.55 404.80 261.82 405.23 C 262.11 410.36 261.32 415.71 263.36 420.59 C 263.46 436.01 263.06 451.59 266.57 466.72 C 261.07 465.98 255.52 466.07 249.99 466.16 C 226.48 466.16 202.96 466.23 179.45 466.13 C 179.66 444.71 179.21 423.01 173.84 402.16 Z" />
<path fill="#22416d" d=" M 364.13 406.16 C 388.67 405.72 413.23 405.97 437.78 406.04 C 438.52 406.93 439.27 407.83 440.03 408.73 C 440.02 408.02 440.01 406.59 440.01 405.88 C 441.88 418.39 444.34 430.86 448.34 442.88 C 435.56 443.14 422.78 443.08 410.00 442.92 C 407.01 442.86 404.04 443.27 401.12 443.87 C 402.37 444.75 403.64 445.64 404.91 446.52 C 395.61 446.02 386.04 447.67 376.98 445.04 C 369.56 442.88 364.50 435.90 363.38 428.45 C 364.41 421.05 363.64 413.58 364.13 406.16 Z" />
<path fill="#203d67" d=" M 401.12 443.87 C 404.04 443.27 407.01 442.86 410.00 442.92 C 422.78 443.08 435.56 443.14 448.34 442.88 C 455.29 463.57 466.95 482.95 483.48 497.39 C 479.67 497.87 475.84 498.15 472.00 498.09 C 452.44 497.89 432.88 498.19 413.32 497.84 C 412.86 490.79 414.29 483.53 411.92 476.70 C 410.69 466.41 408.34 456.30 404.91 446.52 C 403.64 445.64 402.37 444.75 401.12 443.87 Z" />
<path fill="#1f3c66" d=" M 1323.94 449.84 C 1325.63 449.84 1326.26 448.08 1327.15 446.95 C 1326.95 462.84 1327.49 478.74 1326.83 494.62 C 1326.28 498.01 1325.84 501.42 1325.64 504.86 C 1298.42 505.20 1271.19 504.94 1243.96 504.98 C 1240.78 505.02 1237.61 505.13 1234.46 505.50 C 1238.79 502.56 1242.90 499.30 1246.83 495.84 C 1260.38 483.79 1269.98 467.46 1273.95 449.78 C 1273.95 450.54 1273.97 452.08 1273.98 452.84 C 1274.73 451.93 1275.50 451.02 1276.28 450.11 C 1286.18 449.81 1296.09 450.24 1306.00 449.96 C 1311.97 449.71 1317.98 450.49 1323.94 449.84 Z" />
<path fill="#203d67" d=" M 975.58 487.52 C 984.44 477.32 990.72 464.97 994.02 451.88 C 993.73 453.71 993.55 455.55 993.36 457.40 C 1004.54 456.57 1015.81 456.61 1026.97 457.75 C 1029.04 457.89 1031.01 458.63 1032.90 459.47 C 1028.41 469.93 1025.16 480.97 1023.78 492.29 C 1023.36 490.92 1022.89 489.56 1022.45 488.22 C 1006.84 487.55 991.15 488.90 975.58 487.52 Z" />
<path fill="#1d385f" d=" M 179.45 466.13 C 202.96 466.23 226.48 466.16 249.99 466.16 C 255.52 466.07 261.07 465.98 266.57 466.72 C 268.71 476.71 272.31 486.50 278.00 495.03 C 284.74 505.41 295.48 512.68 307.15 516.43 C 325.46 522.35 345.04 522.00 364.01 520.64 C 379.61 519.84 395.08 517.52 410.51 515.24 C 412.92 502.57 412.77 489.52 411.92 476.70 C 414.29 483.53 412.86 490.79 413.32 497.84 C 432.88 498.19 452.44 497.89 472.00 498.09 C 475.84 498.15 479.67 497.87 483.48 497.39 C 499.61 511.37 519.61 520.24 540.18 525.40 C 558.83 530.26 578.30 530.38 597.41 529.10 C 634.23 526.16 670.56 513.85 700.68 492.31 C 700.83 483.48 697.76 474.86 695.12 466.52 C 711.74 465.71 728.41 466.45 745.04 466.05 C 747.32 465.64 748.96 467.00 749.88 468.95 C 746.69 478.01 744.48 487.48 744.21 497.11 C 771.42 512.27 801.14 523.32 832.07 527.66 C 847.26 530.03 862.69 530.04 878.02 529.45 C 899.62 528.00 921.27 523.40 940.77 513.74 C 953.88 507.30 965.97 498.58 975.58 487.52 C 991.15 488.90 1006.84 487.55 1022.45 488.22 C 1022.89 489.56 1023.36 490.92 1023.78 492.29 C 1023.69 493.88 1023.60 495.48 1023.54 497.08 C 1036.10 503.98 1049.06 510.20 1062.53 515.13 C 1100.04 529.25 1141.36 533.64 1180.87 526.51 C 1199.85 523.04 1218.37 516.25 1234.46 505.50 C 1237.61 505.13 1240.78 505.02 1243.96 504.98 C 1271.19 504.94 1298.42 505.20 1325.64 504.86 C 1325.84 501.42 1326.28 498.01 1326.83 494.62 C 1327.48 505.08 1326.98 515.57 1327.12 526.05 C 1327.27 537.21 1327.04 548.55 1323.94 559.36 C 1317.67 560.45 1311.31 560.04 1305.00 560.04 C 937.66 560.01 570.34 560.02 203.00 560.02 C 195.92 560.00 188.81 560.45 181.78 559.43 C 180.17 552.43 179.42 545.25 179.45 538.07 C 179.45 514.09 179.42 490.11 179.45 466.13 Z" />
<path fill="#1a3457" d=" M 181.78 559.43 C 188.81 560.45 195.92 560.00 203.00 560.02 C 570.34 560.02 937.66 560.01 1305.00 560.04 C 1311.31 560.04 1317.67 560.45 1323.94 559.36 C 1319.67 575.36 1308.52 588.83 1294.78 597.75 C 1288.20 601.89 1280.70 604.14 1273.33 606.39 C 1272.94 616.70 1273.44 627.02 1272.99 637.33 C 1272.54 635.28 1272.00 633.25 1271.50 631.23 C 1262.02 630.47 1252.50 631.25 1243.01 630.93 C 906.49 630.98 569.97 630.92 233.45 630.95 C 233.40 622.84 233.44 614.72 233.45 606.61 C 222.82 603.28 211.94 599.83 202.89 593.09 C 191.86 585.06 184.54 572.71 181.78 559.43 Z" />
<path fill="#182f50" d=" M 233.45 630.95 C 569.97 630.92 906.49 630.98 1243.01 630.93 C 1252.50 631.25 1262.02 630.47 1271.50 631.23 C 1272.00 633.25 1272.54 635.28 1272.99 637.33 C 1273.42 646.30 1272.99 655.29 1273.32 664.26 C 1261.92 663.25 1250.44 664.11 1239.01 663.85 C 1152.66 663.79 1066.32 663.85 979.97 663.81 C 955.65 664.00 931.32 663.48 907.01 664.14 C 892.70 663.45 878.36 663.96 864.04 663.82 C 653.83 663.80 443.62 663.86 233.41 663.79 C 233.46 652.84 233.36 641.89 233.45 630.95 Z" />
<path fill="transparent" d=" M 233.41 663.79 C 443.62 663.86 653.83 663.80 864.04 663.82 C 878.36 663.96 892.70 663.45 907.01 664.14 C 931.32 663.48 955.65 664.00 979.97 663.81 C 1066.32 663.85 1152.66 663.79 1239.01 663.85 C 1250.44 664.11 1261.92 663.25 1273.32 664.26 C 1273.24 665.49 1273.19 666.74 1273.18 668.00 L 233.29 668.00 C 233.33 666.59 233.37 665.18 233.41 663.79 Z" />
<path fill="#f6f6f6" d=" M 1273.32 664.26 C 1273.34 665.43 1273.36 666.62 1273.38 667.81 C 1290.40 668.09 1307.51 668.31 1324.34 665.27 C 1320.56 666.49 1316.73 667.65 1312.77 668.00 L 1273.18 668.00 C 1273.19 666.74 1273.24 665.49 1273.32 664.26 Z" />
</svg>
